<svg width="98" height="98" viewBox="0 0 98 98" fill="none" xmlns="http://www.w3.org/2000/svg">
<path fill-rule="evenodd" clip-rule="evenodd" d="M0 48.875C0 21.882 21.882 0 48.875 0C75.868 0 97.75 21.882 97.75 48.875C97.75 63.0758 91.6937 75.862 82.023 84.7916V57.718C82.023 45.815 79.455 36.659 65.542 36.659C58.857 36.659 54.377 40.323 52.542 43.799H52.357V37.758H39.179V96.7883C36.1997 96.1887 33.3184 95.3181 30.562 94.2034V37.758H16.822V85.7728C6.51567 76.8121 0 63.6045 0 48.875ZM16.822 85.7728C16.822 85.7728 16.8898 85.8309 17 85.9248V85.9268C16.9405 85.8756 16.8812 85.8243 16.822 85.7728ZM30.562 94.2034L30.5 94.1783V94.1777L30.562 94.2034ZM39.179 96.7883C39.179 96.7883 39.2992 96.8109 39.5 96.8476V96.8518C39.4443 96.841 39.3886 96.83 39.3329 96.819C39.2816 96.8089 39.2303 96.7986 39.179 96.7883ZM81.8962 84.9083C81.9386 84.8695 81.9808 84.8306 82.023 84.7916C82.023 84.7916 81.9767 84.833 81.8937 84.9068C81.8946 84.9073 81.8954 84.9078 81.8962 84.9083ZM68.5 93.6464V93.6504C68.4314 93.6805 68.3627 93.7104 68.294 93.7402C68.294 93.7402 68.3689 93.7064 68.5 93.6464ZM52.907 97.5861V60.096C52.907 54.33 54.006 48.746 61.152 48.746C68.199 48.746 68.294 55.34 68.294 60.467V93.7402C63.5129 95.8124 58.3355 97.1428 52.907 97.5861ZM52.907 97.5861C52.8513 97.5906 52.7955 97.5951 52.7397 97.5994C52.6599 97.6057 52.58 97.6117 52.5 97.6176V97.6126C52.7522 97.5968 52.907 97.5861 52.907 97.5861ZM15.726 23.747C15.726 28.145 19.291 31.715 23.695 31.715C28.086 31.715 31.657 28.146 31.657 23.747C31.657 19.353 28.087 15.783 23.695 15.783C19.291 15.783 15.727 19.353 15.726 23.747Z" fill="black"/>
</svg>
